<svg width="16" height="16" viewBox="0 0 16 16" fill="none" xmlns="http://www.w3.org/2000/svg">
<path d="M14.8645 14.2191C14.9342 14.2887 14.9895 14.3715 15.0272 14.4625C15.0649 14.5536 15.0843 14.6511 15.0843 14.7497C15.0843 14.8482 15.0649 14.9458 15.0272 15.0369C14.9895 15.1279 14.9342 15.2106 14.8645 15.2803C14.7949 15.35 14.7121 15.4053 14.6211 15.443C14.53 15.4807 14.4325 15.5001 14.3339 15.5001C14.2354 15.5001 14.1378 15.4807 14.0467 15.443C13.9557 15.4053 13.873 15.35 13.8033 15.2803L7.58391 9.06L1.36454 15.2803C1.22381 15.421 1.03294 15.5001 0.833913 15.5001C0.63489 15.5001 0.444019 15.421 0.303288 15.2803C0.162558 15.1396 0.0834961 14.9487 0.0834961 14.7497C0.0834961 14.5507 0.162558 14.3598 0.303288 14.2191L6.5236 7.99968L0.303288 1.78031C0.162558 1.63958 0.0834961 1.44871 0.0834961 1.24968C0.0834961 1.05066 0.162558 0.85979 0.303288 0.71906C0.444019 0.578329 0.63489 0.499268 0.833913 0.499268C1.03294 0.499268 1.22381 0.578329 1.36454 0.71906L7.58391 6.93937L13.8033 0.71906C13.944 0.578329 14.1349 0.499268 14.3339 0.499268C14.5329 0.499268 14.7238 0.578329 14.8645 0.71906C15.0053 0.85979 15.0843 1.05066 15.0843 1.24968C15.0843 1.44871 15.0053 1.63958 14.8645 1.78031L8.64423 7.99968L14.8645 14.2191Z" fill="#1E1E1E"/>
</svg>
