<svg width="164" height="37" viewBox="0 0 164 37" fill="none" xmlns="http://www.w3.org/2000/svg">
<path d="M0 1.11267V36.5001H35.9194L0 1.11267Z" fill="white"/>
<rect x="17.7363" y="0.5" width="18.1831" height="36" fill="#CFCFCF"/>
<mask id="mask0_512_1667" style="mask-type:alpha" maskUnits="userSpaceOnUse" x="17" y="0" width="19" height="37">
<rect x="17.7363" y="0.5" width="18.1831" height="36" fill="white"/>
</mask>
<g mask="url(#mask0_512_1667)">
<g style="mix-blend-mode:soft-light">
<path d="M0 1.11267V36.5001H35.9194L0 1.11267Z" fill="white"/>
</g>
</g>
<path d="M45.5519 10.7H49.3919L56.1359 21.812V10.7H59.7359V27.5H55.8959L49.1519 16.388V27.5H45.5519V10.7ZM68.1796 27.692C66.9636 27.692 65.8676 27.428 64.8916 26.9C63.9156 26.356 63.1556 25.612 62.6116 24.668C62.0676 23.708 61.7956 22.636 61.7956 21.452C61.7956 20.268 62.0676 19.204 62.6116 18.26C63.1556 17.3 63.9156 16.556 64.8916 16.028C65.8676 15.484 66.9636 15.212 68.1796 15.212C69.3956 15.212 70.4916 15.484 71.4676 16.028C72.4436 16.556 73.2036 17.3 73.7476 18.26C74.2916 19.204 74.5636 20.268 74.5636 21.452C74.5636 22.636 74.2916 23.708 73.7476 24.668C73.2036 25.612 72.4436 26.356 71.4676 26.9C70.4916 27.428 69.3956 27.692 68.1796 27.692ZM68.1796 24.812C69.0756 24.812 69.8036 24.5 70.3636 23.876C70.9236 23.252 71.2036 22.444 71.2036 21.452C71.2036 20.444 70.9236 19.628 70.3636 19.004C69.8036 18.38 69.0756 18.068 68.1796 18.068C67.2836 18.068 66.5556 18.38 65.9956 19.004C65.4356 19.628 65.1556 20.444 65.1556 21.452C65.1556 22.444 65.4356 23.252 65.9956 23.876C66.5556 24.5 67.2836 24.812 68.1796 24.812ZM88.0719 11.828V15.404H91.3359V18.188H88.0719V22.964C88.0719 24.116 88.6399 24.692 89.7759 24.692H91.3359V27.5H89.3199C87.9119 27.5 86.7919 27.116 85.9599 26.348C85.1439 25.58 84.7359 24.5 84.7359 23.108V11.828H88.0719ZM82.3599 18.188C81.5599 18.188 80.9599 18.492 80.5599 19.1C80.1599 19.708 79.9599 20.548 79.9599 21.62V27.5H76.6239V15.404H79.9599V17.42C80.2799 16.684 80.6719 16.164 81.1359 15.86C81.6159 15.556 82.2399 15.404 83.0079 15.404H83.7999V18.188H82.3599ZM93.2879 10.148H96.6239V17.084C96.9599 16.492 97.4479 16.036 98.0879 15.716C98.7439 15.38 99.4879 15.212 100.32 15.212C101.216 15.212 102 15.412 102.672 15.812C103.36 16.212 103.888 16.772 104.256 17.492C104.624 18.212 104.808 19.036 104.808 19.964V27.5H101.448V20.708C101.448 19.972 101.232 19.372 100.8 18.908C100.368 18.428 99.8079 18.188 99.1199 18.188C98.3839 18.188 97.7839 18.444 97.3199 18.956C96.8559 19.452 96.6239 20.092 96.6239 20.876V27.5H93.2879V10.148ZM107.427 10.7H118.851V13.796H111.027V17.54H117.267V20.66H111.027V27.5H107.427V10.7ZM124.743 27.692C122.967 27.692 121.567 27.132 120.543 26.012C119.535 24.876 119.031 23.356 119.031 21.452C119.031 20.204 119.255 19.108 119.703 18.164C120.167 17.22 120.823 16.492 121.671 15.98C122.519 15.468 123.527 15.212 124.695 15.212C125.415 15.212 126.063 15.34 126.639 15.596C127.231 15.836 127.703 16.172 128.055 16.604V15.404H131.391V27.5H128.055V26.228C127.735 26.676 127.279 27.036 126.687 27.308C126.095 27.564 125.447 27.692 124.743 27.692ZM125.271 24.812C126.167 24.812 126.887 24.508 127.431 23.9C127.975 23.276 128.247 22.46 128.247 21.452C128.247 20.428 127.975 19.612 127.431 19.004C126.887 18.38 126.167 18.068 125.271 18.068C124.391 18.068 123.679 18.38 123.135 19.004C122.591 19.612 122.319 20.428 122.319 21.452C122.319 22.46 122.591 23.276 123.135 23.9C123.679 24.508 124.391 24.812 125.271 24.812ZM139.708 27.692C138.476 27.692 137.388 27.42 136.444 26.876C135.5 26.332 134.764 25.588 134.236 24.644C133.724 23.684 133.468 22.62 133.468 21.452C133.468 20.284 133.724 19.228 134.236 18.284C134.764 17.324 135.5 16.572 136.444 16.028C137.388 15.484 138.476 15.212 139.708 15.212C140.764 15.212 141.724 15.412 142.588 15.812C143.468 16.212 144.172 16.772 144.7 17.492C145.244 18.212 145.548 19.028 145.612 19.94H142.252C142.156 19.396 141.876 18.948 141.412 18.596C140.948 18.244 140.412 18.068 139.804 18.068C138.908 18.068 138.204 18.38 137.692 19.004C137.196 19.628 136.948 20.444 136.948 21.452C136.948 22.46 137.204 23.276 137.716 23.9C138.228 24.508 138.94 24.812 139.852 24.812C140.46 24.812 140.988 24.644 141.436 24.308C141.884 23.972 142.172 23.532 142.3 22.988H145.684C145.572 23.868 145.236 24.668 144.676 25.388C144.132 26.108 143.42 26.676 142.54 27.092C141.676 27.492 140.732 27.692 139.708 27.692ZM153.137 27.692C151.825 27.692 150.697 27.396 149.753 26.804C148.825 26.196 148.121 25.412 147.641 24.452C147.161 23.492 146.921 22.484 146.921 21.428C146.921 20.356 147.137 19.348 147.569 18.404C148.017 17.46 148.689 16.692 149.585 16.1C150.497 15.508 151.601 15.212 152.897 15.212C154.241 15.212 155.361 15.5 156.257 16.076C157.153 16.652 157.809 17.388 158.225 18.284C158.657 19.18 158.873 20.124 158.873 21.116C158.873 21.484 158.857 21.844 158.825 22.196H150.137C150.265 23.06 150.585 23.74 151.097 24.236C151.625 24.716 152.305 24.956 153.137 24.956C153.809 24.956 154.361 24.828 154.793 24.572C155.225 24.3 155.505 23.908 155.633 23.396H158.897C158.657 24.692 158.009 25.732 156.953 26.516C155.897 27.3 154.625 27.692 153.137 27.692ZM155.537 20.084C155.489 19.38 155.233 18.804 154.769 18.356C154.305 17.892 153.681 17.66 152.897 17.66C152.129 17.66 151.521 17.86 151.073 18.26C150.625 18.644 150.329 19.252 150.185 20.084H155.537Z" fill="white"/>
</svg>
